<svg id="e5hrdefb7i4h1" xmlns="http://www.w3.org/2000/svg" xmlns:xlink="http://www.w3.org/1999/xlink" viewBox="0 0 438.710000 414.920000" shape-rendering="geometricPrecision" text-rendering="geometricPrecision"><style><![CDATA[#e5hrdefb7i4h20_to {animation: e5hrdefb7i4h20_to__to 4000ms linear infinite normal forwards}@keyframes e5hrdefb7i4h20_to__to { 0% {transform: translate(30.007170px,10.678028px);animation-timing-function: cubic-bezier(0.420000,0,0.580000,1)} 50% {transform: translate(30.007170px,38.678028px);animation-timing-function: cubic-bezier(0.420000,0,0.580000,1)} 100% {transform: translate(30.007170px,10.678028px)} }#e5hrdefb7i4h28_to {animation: e5hrdefb7i4h28_to__to 4000ms linear infinite normal forwards}@keyframes e5hrdefb7i4h28_to__to { 0% {transform: translate(221.120000px,185.867216px);animation-timing-function: cubic-bezier(0.420000,0,0.580000,1)} 50% {transform: translate(221.120000px,196.867216px);animation-timing-function: cubic-bezier(0.420000,0,0.580000,1)} 100% {transform: translate(221.120000px,185.867216px)} }#e5hrdefb7i4h36_to {animation: e5hrdefb7i4h36_to__to 4000ms linear infinite normal forwards}@keyframes e5hrdefb7i4h36_to__to { 0% {transform: translate(6.068159px,37.654797px);animation-timing-function: cubic-bezier(0.420000,0,0.580000,1)} 50% {transform: translate(6.068159px,11.654797px);animation-timing-function: cubic-bezier(0.420000,0,0.580000,1)} 100% {transform: translate(6.068159px,37.654797px)} }]]></style><path id="e5hrdefb7i4h2" d="M466,346C472.060000,418,438,444,250,457C131.540000,465.190000,16.070000,418.420000,36,346C46.080000,309.370000,155.560000,298.910000,251,210C337.880000,129.060000,459.700000,271.150000,466,346Z" transform="matrix(1 0 0 1 -29.07398453999998 -43.00783991999999)" fill="rgb(235,205,162)" stroke="none" stroke-width="1"/><g id="e5hrdefb7i4h3"><path id="e5hrdefb7i4h4" d="M99,425.490000L99,412.190000L103.840000,412.190000C105.034830,412.118030,106.224376,412.399765,107.260000,413C108.036682,413.506947,108.491806,414.383059,108.460000,415.310000C108.467591,416.007245,108.206135,416.680585,107.730000,417.190000C107.230288,417.734044,106.584610,418.122840,105.870000,418.310000L105.870000,418.310000C106.718989,418.373015,107.520478,418.726094,108.140000,419.310000C108.691784,419.876946,108.997284,420.638900,108.990000,421.430000C109.035300,422.549202,108.549726,423.624137,107.680000,424.330000C106.651170,425.092030,105.388361,425.470518,104.110000,425.400000ZM102,414.400000L102,417.550000L103.320000,417.550000C103.844797,417.579223,104.362714,417.419591,104.780000,417.100000C105.140384,416.791943,105.336386,416.333370,105.310000,415.860000C105.310000,414.860000,104.580000,414.400000,103.120000,414.400000ZM102,419.780000L102,423.280000L103.630000,423.280000C104.209538,423.314553,104.782830,423.144688,105.250000,422.800000C105.646918,422.480036,105.866332,421.989144,105.840000,421.480000C105.860822,420.993930,105.644608,420.527951,105.260000,420.230000C104.786063,419.901892,104.215262,419.743336,103.640000,419.780000Z" transform="matrix(1 0 0 1 -30.95000000000000 -43.01000000000000)" fill="rgb(255,255,255)" stroke="none" stroke-width="1"/><path id="e5hrdefb7i4h5" d="M118.780000,425.490000L116,425.490000L116,424.130000L116,424.130000C115.431722,425.151006,114.337606,425.765722,113.170000,425.720000C112.371638,425.759476,111.590534,425.478711,111,424.940000C110.454420,424.384816,110.164569,423.627580,110.200000,422.850000C110.200000,421,111.300000,419.940000,113.480000,419.660000L116.060000,419.310000C116.060000,418.310000,115.490000,417.750000,114.370000,417.750000C113.217350,417.751464,112.091840,418.099919,111.140000,418.750000L111.140000,416.540000C111.675125,416.285664,112.239298,416.097607,112.820000,415.980000C113.452431,415.828611,114.099753,415.748115,114.750000,415.740000Q118.820000,415.740000,118.810000,419.790000ZM116,421.630000L116,421L114.270000,421.220000C113.270000,421.350000,112.840000,421.780000,112.840000,422.510000C112.831545,422.824188,112.959124,423.126734,113.190000,423.340000C113.451302,423.562212,113.787392,423.676626,114.130000,423.660000C114.641715,423.676628,115.135046,423.468332,115.480000,423.090000C115.832262,422.686917,116.018147,422.165010,116,421.630000Z" transform="matrix(1 0 0 1 -30.95000000000000 -43.01000000000000)" fill="rgb(255,255,255)" stroke="none" stroke-width="1"/><path id="e5hrdefb7i4h6" d="M124,425.330000C124.071565,426.532679,123.717548,427.722176,123,428.690000C122.259704,429.567464,121.145296,430.039230,120,429.960000C119.517597,429.946637,119.040906,429.851975,118.590000,429.680000L118.590000,427.380000C118.920362,427.580099,119.294461,427.696791,119.680000,427.720000C120.600000,427.720000,121.060000,427,121.060000,425.550000L121.060000,416L124,416ZM122.560000,414.490000C122.111827,414.506032,121.674770,414.348405,121.340000,414.050000C121.037590,413.772710,120.866811,413.380282,120.870000,412.970000C120.858860,412.558135,121.031012,412.162551,121.340000,411.890000C122.059132,411.336404,123.060868,411.336404,123.780000,411.890000C124.088988,412.162551,124.261140,412.558135,124.250000,412.970000C124.261353,413.384791,124.089422,413.783524,123.780000,414.060000C123.451861,414.348454,123.026733,414.502072,122.590000,414.490000Z" transform="matrix(1 0 0 1 -30.95000000000000 -43.01000000000000)" fill="rgb(255,255,255)" stroke="none" stroke-width="1"/><path id="e5hrdefb7i4h7" d="M131,425.720000C129.627945,425.799481,128.282233,425.319642,127.270000,424.390000C125.422406,422.307379,125.422406,419.172621,127.270000,417.090000C128.315488,416.162553,129.684461,415.684670,131.080000,415.760000C132.446603,415.676684,133.787588,416.157414,134.790000,417.090000C135.709394,418.024884,136.198463,419.300086,136.140000,420.610000C136.215702,421.995535,135.712224,423.350218,134.750000,424.350000C133.735060,425.292316,132.383362,425.786137,131,425.720000ZM131.070000,418.010000C130.450390,417.974026,129.851287,418.238227,129.460000,418.720000C129.046965,419.302333,128.842600,420.007041,128.880000,420.720000C128.880000,422.550000,129.620000,423.460000,131.090000,423.460000C132.560000,423.460000,133.200000,422.520000,133.200000,420.650000C133.200000,418.780000,132.520000,418,131.100000,418Z" transform="matrix(1 0 0 1 -30.95000000000000 -43.01000000000000)" fill="rgb(255,255,255)" stroke="none" stroke-width="1"/></g><g id="e5hrdefb7i4h8"><path id="e5hrdefb7i4h9" d="M231.500000,425.490000L228.500000,425.490000L223,417.130000C222.752836,416.778390,222.529021,416.410933,222.330000,416.030000L222.330000,416.030000C222.380000,416.500000,222.400000,417.220000,222.400000,418.180000L222.400000,425.490000L219.580000,425.490000L219.580000,412.190000L222.800000,412.190000L228.080000,420.290000C228.320000,420.650000,228.550000,421.010000,228.750000,421.370000L228.750000,421.370000C228.682597,420.762463,228.655871,420.151101,228.670000,419.540000L228.670000,412.190000L231.500000,412.190000Z" transform="matrix(1 0 0 1 -30.95000000000000 -43.01000000000000)" fill="rgb(255,255,255)" stroke="none" stroke-width="1"/><path id="e5hrdefb7i4h10" d="M238.790000,425.720000C237.415044,425.798769,236.066504,425.319208,235.050000,424.390000C233.202406,422.307379,233.202406,419.172621,235.050000,417.090000C236.098557,416.161006,237.471220,415.683089,238.870000,415.760000C240.236603,415.676684,241.577588,416.157414,242.580000,417.090000C243.491623,418.029198,243.976284,419.302337,243.920000,420.610000C243.995702,421.995535,243.492224,423.350218,242.530000,424.350000C241.518734,425.291748,240.170302,425.785693,238.790000,425.720000ZM238.860000,418.010000C238.240390,417.974026,237.641287,418.238227,237.250000,418.720000C236.833328,419.300571,236.628584,420.006583,236.670000,420.720000C236.670000,422.550000,237.410000,423.460000,238.880000,423.460000C240.350000,423.460000,240.980000,422.520000,240.980000,420.650000C240.980000,418.780000,240.280000,418,238.860000,418Z" transform="matrix(1 0 0 1 -30.95000000000000 -43.01000000000000)" fill="rgb(255,255,255)" stroke="none" stroke-width="1"/><path id="e5hrdefb7i4h11" d="M252.070000,418.640000C251.692751,418.436549,251.268401,418.336499,250.840000,418.350000C250.255320,418.322515,249.694496,418.584233,249.340000,419.050000C248.955608,419.609901,248.769087,420.282082,248.810000,420.960000L248.810000,425.490000L245.870000,425.490000L245.870000,416L248.810000,416L248.810000,417.760000L248.810000,417.760000C249.098225,416.614081,250.138589,415.818264,251.320000,415.840000C251.565059,415.825764,251.810371,415.863242,252.040000,415.950000Z" transform="matrix(1 0 0 1 -30.95000000000000 -43.01000000000000)" fill="rgb(255,255,255)" stroke="none" stroke-width="1"/><path id="e5hrdefb7i4h12" d="M268.520000,425.490000L265.600000,425.490000L265.600000,420.070000C265.600000,418.700000,265.090000,418.010000,264.080000,418.010000C263.605865,417.998485,263.159500,418.233015,262.900000,418.630000C262.579216,419.081453,262.417418,419.626644,262.440000,420.180000L262.440000,425.490000L259.510000,425.490000L259.510000,420C259.510000,418.660000,259.010000,418,258.020000,418C257.546637,417.984236,257.096575,418.205517,256.820000,418.590000C256.497541,419.062815,256.339427,419.628511,256.370000,420.200000L256.370000,425.480000L253.430000,425.480000L253.430000,416L256.370000,416L256.370000,417.490000L256.370000,417.490000C256.683941,416.974275,257.124571,416.547415,257.650000,416.250000C258.192312,415.931146,258.810915,415.765264,259.440000,415.770000C260.650450,415.683712,261.773467,416.403909,262.200000,417.540000C262.849129,416.400345,264.079488,415.717670,265.390000,415.770000Q268.490000,415.770000,268.490000,419.590000Z" transform="matrix(1 0 0 1 -30.95000000000000 -43.01000000000000)" fill="rgb(255,255,255)" stroke="none" stroke-width="1"/><path id="e5hrdefb7i4h13" d="M278.740000,425.490000L276,425.490000L276,424.130000L276,424.130000C275.431722,425.151006,274.337606,425.765722,273.170000,425.720000C272.371638,425.759476,271.590534,425.478711,271,424.940000C270.454420,424.384816,270.164569,423.627580,270.200000,422.850000Q270.200000,420.070000,273.480000,419.660000L276.060000,419.310000C276.060000,418.310000,275.490000,417.750000,274.370000,417.750000C273.217350,417.751464,272.091840,418.099919,271.140000,418.750000L271.140000,416.540000C271.675125,416.285664,272.239298,416.097607,272.820000,415.980000C273.452431,415.828611,274.099753,415.748115,274.750000,415.740000Q278.810000,415.740000,278.810000,419.790000ZM276,421.630000L276,421L274.270000,421.220000C273.320000,421.350000,272.840000,421.780000,272.840000,422.510000C272.831545,422.824188,272.959124,423.126734,273.190000,423.340000C273.451302,423.562212,273.787392,423.676626,274.130000,423.660000C274.641715,423.676628,275.135046,423.468332,275.480000,423.090000C275.832262,422.686917,276.018147,422.165010,276,421.630000Z" transform="matrix(1 0 0 1 -30.95000000000000 -43.01000000000000)" fill="rgb(255,255,255)" stroke="none" stroke-width="1"/><path id="e5hrdefb7i4h14" d="M284,425.490000L281.070000,425.490000L281.070000,411.430000L284,411.430000Z" transform="matrix(1 0 0 1 -30.95000000000000 -43.01000000000000)" fill="rgb(255,255,255)" stroke="none" stroke-width="1"/></g><g id="e5hrdefb7i4h15"><path id="e5hrdefb7i4h16" d="M376.680000,425.490000L373.420000,425.490000L372.470000,422.490000L367.740000,422.490000L366.800000,425.490000L363.560000,425.490000L368.400000,412.190000L372,412.190000ZM371.790000,420.230000L370.360000,415.760000C370.241442,415.369178,370.164350,414.966962,370.130000,414.560000L370.060000,414.560000C370.027867,414.954179,369.950698,415.343381,369.830000,415.720000L368.380000,420.230000Z" transform="matrix(1 0 0 1 -30.95000000000000 -43.01000000000000)" fill="rgb(255,255,255)" stroke="none" stroke-width="1"/><path id="e5hrdefb7i4h17" d="M381,425.490000L378.070000,425.490000L378.070000,411.430000L381,411.430000Z" transform="matrix(1 0 0 1 -30.95000000000000 -43.01000000000000)" fill="rgb(255,255,255)" stroke="none" stroke-width="1"/><path id="e5hrdefb7i4h18" d="M389.200000,425.380000C388.569664,425.650111,387.884185,425.766643,387.200000,425.720000C385.140000,425.720000,384.100000,424.650000,384.100000,422.500000L384.100000,418.150000L382.600000,418.150000L382.600000,416L384.140000,416L384.140000,413.950000L387.070000,413.120000L387.070000,416L389.200000,416L389.200000,418.160000L387.070000,418.160000L387.070000,422C387.070000,423,387.460000,423.490000,388.240000,423.490000C388.591260,423.489377,388.936160,423.396254,389.240000,423.220000Z" transform="matrix(1 0 0 1 -30.95000000000000 -43.01000000000000)" fill="rgb(255,255,255)" stroke="none" stroke-width="1"/><path id="e5hrdefb7i4h19" d="M395.380000,425.720000C394.005044,425.798769,392.656504,425.319208,391.640000,424.390000C389.818399,422.288915,389.844109,419.160859,391.700000,417.090000C392.744929,416.161601,394.114306,415.683577,395.510000,415.760000C396.876603,415.676684,398.217588,416.157414,399.220000,417.090000C400.135741,418.026570,400.621107,419.301562,400.560000,420.610000C400.638361,421.994068,400.138580,423.348547,399.180000,424.350000C398.152754,425.305096,396.780380,425.799873,395.380000,425.720000ZM395.450000,418.010000C394.830390,417.974026,394.231287,418.238227,393.840000,418.720000C393.423328,419.300571,393.218584,420.006583,393.260000,420.720000C393.260000,422.550000,394,423.460000,395.470000,423.460000C396.940000,423.460000,397.580000,422.520000,397.580000,420.650000C397.580000,418.780000,396.870000,418,395.450000,418Z" transform="matrix(1 0 0 1 -30.95000000000000 -43.01000000000000)" fill="rgb(255,255,255)" stroke="none" stroke-width="1"/></g><g id="e5hrdefb7i4h20_to" transform="translate(30.007170,10.678028)"><g id="e5hrdefb7i4h20" transform="scale(0.900000,0.900000) translate(0,0)"><path id="e5hrdefb7i4h21" d="M399.590000,402.650000C389.711968,406.520964,378.571477,405.373381,369.690000,399.570000C361.943879,394.324690,357.889435,385.104038,359.260000,375.850000L393.360000,133.250000L448.150000,140.950000L414.060000,383.550000C412.960048,392.030168,407.455820,399.295597,399.590000,402.650000Z" transform="matrix(1 0 0 1 -30.95000000000000 -43.01000000000000)" fill="rgb(161,213,255)" stroke="none" stroke-width="1"/><path id="e5hrdefb7i4h22" d="M397.490000,399C389.231426,402.372105,379.836149,401.412332,372.430000,396.440000C365.883798,391.833873,362.525329,383.906957,363.770000,376L393,167.940000L438.910000,174.390000L409.670000,382.490000C408.757566,389.737063,404.144987,395.989418,397.490000,399Z" transform="matrix(1 0 0 1 -30.95000000000000 -43.01000000000000)" fill="rgb(250,128,127)" stroke="none" stroke-width="1"/><rect id="e5hrdefb7i4h23" width="131.600000" height="46.360000" rx="0" ry="0" transform="matrix(0.13917300000000 -0.99026800000000 0.99026800000000 0.13917300000000 343.94873594000001 253.76811021999998)" fill="rgb(250,250,164)" stroke="none" stroke-width="1"/><rect id="e5hrdefb7i4h24" width="95.710000" height="76.270000" rx="12" ry="12" transform="matrix(0.13917300000000 -0.99026800000000 0.99026800000000 0.13917300000000 351.42163825000000 93.23421822000000)" fill="rgb(250,128,127)" stroke="none" stroke-width="1"/><rect id="e5hrdefb7i4h25" width="7.480000" height="46.360000" rx="2.500000" ry="2.500000" transform="matrix(0.99026800000000 0.13917300000000 -0.13917300000000 0.99026800000000 369.42102072000006 104.81548619000000)" fill="rgb(255,255,255)" stroke="none" stroke-width="1"/><rect id="e5hrdefb7i4h26" width="7.480000" height="19.440000" rx="2.500000" ry="2.500000" transform="matrix(0.99026800000000 0.13917300000000 -0.13917300000000 0.99026800000000 361.50905306999999 161.09589914999998)" fill="rgb(255,255,255)" stroke="none" stroke-width="1"/><rect id="e5hrdefb7i4h27" width="7.480000" height="19.440000" rx="2.500000" ry="2.500000" transform="matrix(0.99026800000000 0.13917300000000 -0.13917300000000 0.99026800000000 370.55551223999998 322.44376487000000)" fill="rgb(255,255,255)" stroke="none" stroke-width="1"/></g></g><g id="e5hrdefb7i4h28_to" transform="translate(221.120000,185.867216)"><g id="e5hrdefb7i4h28" transform="scale(0.900000,0.900000) translate(-219.354996,-180.955919)"><path id="e5hrdefb7i4h29" d="M266.310000,400.430000C257.076761,405.628174,245.899133,406.038021,236.310000,401.530000C227.919731,397.421638,222.622809,388.871948,222.680000,379.530000L222.680000,134.530000L278,134.530000L278,379.530000C278.075001,388.074124,273.629577,396.021887,266.310000,400.430000Z" transform="matrix(1 0 0 1 -30.95000000000000 -43.01000000000000)" fill="rgb(161,213,255)" stroke="none" stroke-width="1"/><path id="e5hrdefb7i4h30" d="M263.710000,397.080000C256.005402,401.568722,246.571152,401.924943,238.550000,398.030000C231.438338,394.385376,227.011543,387.020306,227.130000,379.030000L227.130000,168.910000L273.490000,168.910000L273.490000,379.050000C273.602178,386.355483,269.894829,393.190198,263.710000,397.080000Z" transform="matrix(1 0 0 1 -30.95000000000000 -43.01000000000000)" fill="rgb(250,128,127)" stroke="none" stroke-width="1"/><rect id="e5hrdefb7i4h31" width="46.360000" height="131.600000" rx="0" ry="0" transform="matrix(1 0 0 1 196.18000000000001 124.41000000000000)" fill="rgb(250,250,164)" stroke="none" stroke-width="1"/><rect id="e5hrdefb7i4h32" width="76.270000" height="95.710000" rx="12" ry="12" transform="matrix(1 0 0 1 181.22000000000000 0.28000000000000)" fill="rgb(250,128,127)" stroke="none" stroke-width="1"/><rect id="e5hrdefb7i4h33" width="7.480000" height="46.360000" rx="2.500000" ry="2.500000" transform="matrix(1 0 0 1 200.66000000000000 104.97000000000000)" fill="rgb(255,255,255)" stroke="none" stroke-width="1"/><rect id="e5hrdefb7i4h34" width="7.480000" height="19.440000" rx="2.500000" ry="2.500000" transform="matrix(1 0 0 1 200.66000000000000 161.80000000000001)" fill="rgb(255,255,255)" stroke="none" stroke-width="1"/><rect id="e5hrdefb7i4h35" width="7.480000" height="19.440000" rx="2.500000" ry="2.500000" transform="matrix(1 0 0 1 232.06999999999999 320.31999999999999)" fill="rgb(255,255,255)" stroke="none" stroke-width="1"/></g></g><g id="e5hrdefb7i4h36_to" transform="translate(6.068159,37.654797)"><g id="e5hrdefb7i4h36" transform="scale(0.900000,0.900000) translate(0,0)"><path id="e5hrdefb7i4h37" d="M132.710000,398.200000C124.281947,404.644518,113.254789,406.608463,103.120000,403.470000C94.229079,400.563772,87.788813,392.821461,86.550000,383.550000L52.460000,141L107.250000,133.300000L141.350000,375.900000C142.611076,384.337634,139.326736,392.814576,132.710000,398.200000Z" transform="matrix(1 0 0 1 -30.95000000000000 -43.01000000000000)" fill="rgb(161,213,255)" stroke="none" stroke-width="1"/><path id="e5hrdefb7i4h38" d="M129.670000,395.250000C122.660016,400.762243,113.367387,402.426594,104.880000,399.690000C97.343014,397.070593,91.941650,390.406069,90.940000,382.490000L61.690000,174.390000L107.600000,167.940000L136.840000,376C137.985837,383.229509,135.266038,390.531621,129.670000,395.250000Z" transform="matrix(1 0 0 1 -30.95000000000000 -43.01000000000000)" fill="rgb(250,128,127)" stroke="none" stroke-width="1"/><rect id="e5hrdefb7i4h39" width="46.360000" height="131.600000" rx="0" ry="0" transform="matrix(0.99026800000000 -0.13917300000000 0.13917300000000 0.99026800000000 30.53057380000000 129.89573179000001)" fill="rgb(250,250,164)" stroke="none" stroke-width="1"/><rect id="e5hrdefb7i4h40" width="76.270000" height="95.710000" rx="12" ry="12" transform="matrix(0.99026800000000 -0.13917300000000 0.13917300000000 0.99026800000000 -1.55352786000000 9.06371576000000)" fill="rgb(250,128,127)" stroke="none" stroke-width="1"/><rect id="e5hrdefb7i4h41" width="7.480000" height="46.360000" rx="2.500000" ry="2.500000" transform="matrix(0.99026800000000 -0.13917300000000 0.13917300000000 0.99026800000000 32.26696232000000 110.01553211000001)" fill="rgb(255,255,255)" stroke="none" stroke-width="1"/><rect id="e5hrdefb7i4h42" width="7.480000" height="19.440000" rx="2.500000" ry="2.500000" transform="matrix(0.99000000000000 -0.14000000000000 0.14000000000000 0.99000000000000 40.33219999999999 166.18149999999997)" fill="rgb(255,255,255)" stroke="none" stroke-width="1"/><rect id="e5hrdefb7i4h43" width="7.480000" height="19.440000" rx="2.500000" ry="2.500000" transform="matrix(0.99026800000000 -0.13917300000000 0.13917300000000 0.99026800000000 93.34076838000000 318.90230787000002)" fill="rgb(255,255,255)" stroke="none" stroke-width="1"/></g></g></svg>