<svg id="eyqjgne7rvi1" xmlns="http://www.w3.org/2000/svg" xmlns:xlink="http://www.w3.org/1999/xlink" viewBox="0 0 386 188.750000" shape-rendering="geometricPrecision" text-rendering="geometricPrecision"><style><![CDATA[#eyqjgne7rvi2_ts {animation: eyqjgne7rvi2_ts__ts 3000ms linear infinite normal forwards}@keyframes eyqjgne7rvi2_ts__ts { 0% {transform: translate(193px,40px) scale(1,1)} 50% {transform: translate(193px,40px) scale(1,1)} 53.333333% {transform: translate(193px,40px) scale(0.900000,0.900000);animation-timing-function: cubic-bezier(0.420000,0,0.580000,1)} 56.666667% {transform: translate(193px,40px) scale(1,1)} 100% {transform: translate(193px,40px) scale(1,1)} }#eyqjgne7rvi5_to {animation: eyqjgne7rvi5_to__to 3000ms linear infinite normal forwards}@keyframes eyqjgne7rvi5_to__to { 0% {transform: translate(355.027330px,146.805555px);animation-timing-function: cubic-bezier(0.390000,0.575000,0.565000,1)} 50% {transform: translate(214.310484px,120.421147px);animation-timing-function: cubic-bezier(0.390000,0.575000,0.565000,1)} 56.666667% {transform: translate(214.310484px,120.421147px);animation-timing-function: cubic-bezier(0.390000,0.575000,0.565000,1)} 100% {transform: translate(355.027330px,146.805555px)} }]]></style><defs><filter id="eyqjgne7rvi2-filter" x="-400%" width="600%" y="-400%" height="600%"><feGaussianBlur id="eyqjgne7rvi2-filter-drop-shadow-0-blur" in="SourceAlpha" stdDeviation="0,0"/><feOffset id="eyqjgne7rvi2-filter-drop-shadow-0-offset" dx="0" dy="0" result="tmp"/><feFlood id="eyqjgne7rvi2-filter-drop-shadow-0-flood" flood-color="rgb(0,0,0)"/><feComposite id="eyqjgne7rvi2-filter-drop-shadow-0-composite" operator="in" in2="tmp"/><feMerge id="eyqjgne7rvi2-filter-drop-shadow-0-merge"><feMergeNode id="eyqjgne7rvi2-filter-drop-shadow-0-merge-node-1"/><feMergeNode id="eyqjgne7rvi2-filter-drop-shadow-0-merge-node-2" in="SourceGraphic"/></feMerge></filter></defs><g id="eyqjgne7rvi2_ts" transform="translate(193,40) scale(1,1)"><g id="eyqjgne7rvi2" transform="translate(-193,-40)" filter="url(#eyqjgne7rvi2-filter)"><rect id="eyqjgne7rvi3" width="386" height="80" rx="27.510000" ry="27.510000" fill="rgb(0,0,255)" stroke="none" stroke-width="1"/><text id="eyqjgne7rvi4" dx="0" dy="0" font-family="MicrosoftNewTaiLue-Bold, &quot;Microsoft New Tai Lue&quot;" font-size="42" font-weight="bold" transform="matrix(1 0 0 1 29.63000000000000 49.85000000000000)" fill="rgb(255,255,255)" stroke="none" stroke-width="1"><![CDATA[Generar Informe]]></text></g></g><g id="eyqjgne7rvi5_to" transform="translate(355.027330,146.805555)"><g id="eyqjgne7rvi5" transform="scale(0.700000,0.700000) translate(-323.230735,-142.746416)"><path id="eyqjgne7rvi6" d="M323,332.670000L352.200000,381C355.115281,385.885406,359.318734,389.874361,364.350000,392.530000L364.350000,392.530000C370.365856,395.685652,377.318919,396.562775,383.930000,395L383.930000,395C393.586730,392.581726,401.510516,385.701814,405.260000,376.480000L407.400000,371.480000C409.729421,365.978424,410.988568,360.083173,411.110000,354.110000L412,312.110000C412.002534,311.939095,411.961219,311.770394,411.880000,311.620000C408.120000,305.060000,403.760000,302.620000,397.980000,309.840000C397.861828,309.996496,397.792277,310.184284,397.780000,310.380000L397,330.100000L395.950000,303.540000C395.940037,303.373265,395.888468,303.211681,395.800000,303.070000C392.150000,297.400000,387.610000,296.780000,382.510000,301.860000C382.355001,302.018865,382.262660,302.228409,382.250000,302.450000L380.630000,326.290000L379.550000,297.670000C379.543706,297.485566,379.480868,297.307525,379.370000,297.160000C375.680000,292.050000,371.430000,290.750000,366.150000,295.360000C365.968769,295.524876,365.860791,295.755230,365.850000,296L364.800000,321.690000C364.800000,321.690000,364.800000,321.690000,364.800000,321.690000L362.640000,273.460000C362.630402,273.285491,362.575236,273.116545,362.480000,272.970000C358.980000,267.970000,354.920000,266.440000,349.750000,271.760000C349.600113,271.929230,349.511988,272.144254,349.500000,272.370000L347.910000,333.490000C347.930023,333.802004,347.766456,334.097082,347.491250,334.245435C347.216044,334.393789,346.879634,334.368229,346.630000,334.180000L330.630000,321.770000C330.468410,321.643831,330.263644,321.586353,330.060000,321.610000C325.280000,322.220000,322.250000,324.970000,322.970000,332.270000C322.955626,332.404049,322.965792,332.539595,323,332.670000Z" transform="matrix(1 0 0 1 -52 -210)" fill="rgb(255,255,255)" stroke="rgb(0,0,0)" stroke-width="6" stroke-linecap="round" stroke-miterlimit="10"/></g></g></svg>