<svg id="eg5pqvs7girq1" xmlns="http://www.w3.org/2000/svg" xmlns:xlink="http://www.w3.org/1999/xlink" viewBox="0 0 490.920000 263.550000" shape-rendering="geometricPrecision" text-rendering="geometricPrecision"><style><![CDATA[#eg5pqvs7girq2_ts {animation: eg5pqvs7girq2_ts__ts 3000ms linear infinite normal forwards}@keyframes eg5pqvs7girq2_ts__ts { 0% {transform: translate(102.730003px,131.776505px) scale(1,1);animation-timing-function: cubic-bezier(0.420000,0,0.580000,1)} 50% {transform: translate(102.730003px,131.776505px) scale(0.900000,0.900000);animation-timing-function: cubic-bezier(0.420000,0,0.580000,1)} 100% {transform: translate(102.730003px,131.776505px) scale(1,1)} }#eg5pqvs7girq20_ts {animation: eg5pqvs7girq20_ts__ts 3000ms linear infinite normal forwards}@keyframes eg5pqvs7girq20_ts__ts { 0% {transform: translate(388.185013px,131.776566px) scale(0.900000,0.900000);animation-timing-function: cubic-bezier(0.420000,0,0.580000,1)} 50% {transform: translate(388.185013px,131.776566px) scale(1,1);animation-timing-function: cubic-bezier(0.420000,0,0.580000,1)} 100% {transform: translate(388.185013px,131.776566px) scale(0.900000,0.900000)} }#eg5pqvs7girq37_tr {animation: eg5pqvs7girq37_tr__tr 3000ms linear infinite normal forwards}@keyframes eg5pqvs7girq37_tr__tr { 0% {transform: translate(245.460000px,131.775000px) rotate(-4deg);animation-timing-function: cubic-bezier(0.420000,0,0.580000,1)} 50% {transform: translate(245.460000px,131.775000px) rotate(4deg);animation-timing-function: cubic-bezier(0.420000,0,0.580000,1)} 100% {transform: translate(245.460000px,131.775000px) rotate(-4deg)} }]]></style><g id="eg5pqvs7girq2_ts" transform="translate(102.730003,131.776505) scale(1,1)"><g id="eg5pqvs7girq2" transform="translate(-102.730003,-131.776505)"><path id="eg5pqvs7girq3" d="M63.470000,103.560000L197.800000,103.560000C202.030501,103.560000,205.460000,106.989499,205.460000,111.220000L205.460000,116L63.460000,116L63.460000,103.560000Z" fill="rgb(250,238,230)" stroke="none" stroke-width="1"/><path id="eg5pqvs7girq4" d="M9.520000,103.560000L62.160000,103.560000L62.160000,197.130000L3,197.130000C1.343146,197.130000,0,195.786854,0,194.130000L0,113.080000C0,107.822249,4.262249,103.560000,9.520000,103.560000Z" fill="rgb(250,238,230)" stroke="none" stroke-width="1"/><path id="eg5pqvs7girq5" d="M3.270000,198.440000L205.460000,198.440000L205.460000,199.850000C205.460000,202.077818,204.575003,204.214391,202.999697,205.789697C201.424392,207.365002,199.287819,208.250000,197.060000,208.250000L11.310000,208.250000C6.891722,208.250000,3.310000,204.668278,3.310000,200.250000L3.310000,198.480000Z" fill="rgb(250,238,230)" stroke="none" stroke-width="1"/><rect id="eg5pqvs7girq6" width="69.360000" height="79.830000" rx="0" ry="0" transform="matrix(1 0 0 1 63.47000000000000 117.30000000000000)" fill="rgb(250,238,230)" stroke="none" stroke-width="1"/><rect id="eg5pqvs7girq7" width="5.230000" height="9.160000" rx="2.390000" ry="2.390000" transform="matrix(1 0 0 1 121.05000000000000 104.22000000000000)" fill="rgb(102,102,102)" stroke="none" stroke-width="1"/><rect id="eg5pqvs7girq8" width="97.490000" height="4.580000" rx="2.090000" ry="2.090000" transform="matrix(1 0 0 1 85.06000000000000 110.11000000000000)" fill="rgb(176,150,132)" stroke="none" stroke-width="1"/><rect id="eg5pqvs7girq9" width="54.960000" height="5.890000" rx="2.690000" ry="2.690000" transform="matrix(1 0 0 1 4.58000000000000 96.36000000000000)" fill="rgb(168,163,199)" stroke="none" stroke-width="1"/><rect id="eg5pqvs7girq10" width="71.320000" height="79.830000" rx="0" ry="0" transform="matrix(1 0 0 1 134.13999999999999 117.30000000000000)" fill="rgb(250,238,230)" stroke="none" stroke-width="1"/><path id="eg5pqvs7girq11" d="M80.680000,219.090000L197,219.090000C198.656854,219.090000,200,217.746854,200,216.090000L200,193C200.004549,190.129013,198.358977,187.510881,195.770000,186.270000C155.500000,167.160000,117.900000,167.710000,82.700000,186.270000C80.371391,187.510823,78.875532,189.893540,78.770000,192.530000L77.770000,215.990000C77.743058,216.787450,78.034904,217.562781,78.580998,218.144531C79.127093,218.726281,79.882441,219.066518,80.680000,219.090000Z" transform="matrix(1 0 0 1 -5.61000000000000 -116.84000000000000)" fill="rgb(250,238,230)" stroke="none" stroke-width="1"/><path id="eg5pqvs7girq12" d="M90.670000,219.090000L183.780000,219.090000L183.630000,210.660000C183.621360,209.004687,182.566102,207.536153,181,207Q137.170000,191.760000,93.230000,208.250000C91.667854,208.830741,90.641878,210.333636,90.670000,212Z" transform="matrix(1 0 0 1 -5.61000000000000 -116.84000000000000)" fill="rgb(168,163,199)" stroke="none" stroke-width="1"/><rect id="eg5pqvs7girq13" width="16.360000" height="4.580000" rx="2.090000" ry="2.090000" transform="matrix(1 0 0 1 3.27000000000000 123.19000000000000)" fill="rgb(176,150,132)" stroke="none" stroke-width="1"/><rect id="eg5pqvs7girq14" width="16.360000" height="4.580000" rx="2.090000" ry="2.090000" transform="matrix(1 0 0 1 68.70000000000000 123.19000000000000)" fill="rgb(176,150,132)" stroke="none" stroke-width="1"/><rect id="eg5pqvs7girq15" width="11.780000" height="3.270000" rx="1.490000" ry="1.490000" transform="matrix(1 0 0 1 88.33000000000000 96.36000000000000)" fill="rgb(250,238,230)" stroke="none" stroke-width="1"/><rect id="eg5pqvs7girq16" width="3.930000" height="3.270000" rx="1.490000" ry="1.490000" transform="matrix(1 0 0 1 102.06999999999999 96.36000000000000)" fill="rgb(250,238,230)" stroke="none" stroke-width="1"/><rect id="eg5pqvs7girq17" width="3.930000" height="3.270000" rx="1.490000" ry="1.490000" transform="matrix(1 0 0 1 171.43000000000001 91.13000000000000)" fill="rgb(250,238,230)" stroke="none" stroke-width="1"/><rect id="eg5pqvs7girq18" width="11.780000" height="3.270000" rx="1.490000" ry="1.490000" transform="matrix(1 0 0 1 5.89000000000000 97.67000000000000)" fill="rgb(250,238,230)" stroke="none" stroke-width="1"/><rect id="eg5pqvs7girq19" width="19.700000" height="5.470000" rx="2.500000" ry="2.500000" transform="matrix(1 0 0 1 129.72000000000000 131.80000000000001)" fill="rgb(250,238,230)" stroke="none" stroke-width="1"/></g></g><g id="eg5pqvs7girq20_ts" transform="translate(388.185013,131.776566) scale(0.900000,0.900000)"><g id="eg5pqvs7girq20" transform="translate(-388.185013,-131.776566)"><path id="eg5pqvs7girq21" d="M291.080000,220.400000L433.080000,220.400000L433.080000,225.170000C433.080000,227.201558,432.272967,229.149909,430.836438,230.586438C429.399909,232.022967,427.451558,232.830000,425.420000,232.830000L291.080000,232.830000L291.080000,220.400000Z" transform="matrix(-1 0 -0 -1 718.52999999999997 336.38999999999999)" fill="rgb(250,238,230)" stroke="none" stroke-width="1"/><path id="eg5pqvs7girq22" d="M437.340000,220.400000L496.530000,220.400000L496.530000,314L443.900000,314C438.642249,314,434.380000,309.737751,434.380000,304.480000L434.380000,223.370000C434.380000,221.713146,435.723146,220.370000,437.380000,220.370000Z" transform="matrix(-1 0 -0 -1 925.29999999999995 417.52999999999997)" fill="rgb(250,238,230)" stroke="none" stroke-width="1"/><path id="eg5pqvs7girq23" d="M299.120000,315.280000L484.860000,315.280000C489.499192,315.280000,493.260000,319.040808,493.260000,323.680000L493.260000,325.090000L291.080000,325.090000L291.080000,323.320000C291.069295,321.184396,291.912926,319.133165,293.423045,317.623045C294.933165,316.112926,296.984396,315.269295,299.120000,315.280000Z" transform="matrix(-1 0 -0 -1 778.73000000000002 523.52999999999997)" fill="rgb(250,238,230)" stroke="none" stroke-width="1"/><rect id="eg5pqvs7girq24" width="5.230000" height="9.160000" rx="2.390000" ry="2.390000" transform="matrix(-1 0 -0 -1 369.87000000000000 113.38000000000005)" fill="rgb(102,102,102)" stroke="none" stroke-width="1"/><rect id="eg5pqvs7girq25" width="69.360000" height="79.830000" rx="0" ry="0" transform="matrix(-1 0 -0 -1 427.44999999999993 195.83000000000010)" fill="rgb(250,238,230)" stroke="none" stroke-width="1"/><rect id="eg5pqvs7girq26" width="97.490000" height="4.580000" rx="2.090000" ry="2.090000" transform="matrix(-1 0 -0 -1 405.86000000000001 114.69000000000003)" fill="rgb(176,150,132)" stroke="none" stroke-width="1"/><rect id="eg5pqvs7girq27" width="54.960000" height="5.890000" rx="2.690000" ry="2.690000" transform="matrix(-1 0 -0 -1 486.34000000000003 102.25000000000006)" fill="rgb(168,163,199)" stroke="none" stroke-width="1"/><rect id="eg5pqvs7girq28" width="71.320000" height="79.830000" rx="0" ry="0" transform="matrix(-1 0 -0 -1 356.77999999999997 197.13000000000002)" fill="rgb(250,238,230)" stroke="none" stroke-width="1"/><path id="eg5pqvs7girq29" d="M421.460000,219.090000L305.170000,219.090000C303.513146,219.090000,302.170000,217.746854,302.170000,216.090000L302.170000,193C302.165451,190.129013,303.811023,187.510881,306.400000,186.270000C346.670000,167.160000,384.260000,167.710000,419.470000,186.270000C421.798609,187.510823,423.294468,189.893540,423.400000,192.530000L424.400000,215.990000C424.426918,216.792524,424.130992,217.572343,423.578437,218.154969C423.025882,218.737595,422.262824,219.074392,421.460000,219.090000Z" transform="matrix(1 0 0 1 -5.61000000000000 -116.84000000000000)" fill="rgb(250,238,230)" stroke="none" stroke-width="1"/><path id="eg5pqvs7girq30" d="M411.470000,219.090000L318.370000,219.090000L318.510000,210.660000C318.545764,209.019772,319.599176,207.575322,321.150000,207.040000Q364.980000,191.800000,408.920000,208.290000C410.448951,208.860307,411.464666,210.318156,411.470000,211.950000Z" transform="matrix(1 0 0 1 -5.61000000000000 -116.84000000000000)" fill="rgb(168,163,199)" stroke="none" stroke-width="1"/><rect id="eg5pqvs7girq31" width="16.360000" height="4.580000" rx="2.090000" ry="2.090000" transform="matrix(-1 0 -0 -1 487.64999999999992 127.77000000000007)" fill="rgb(176,150,132)" stroke="none" stroke-width="1"/><rect id="eg5pqvs7girq32" width="16.360000" height="4.580000" rx="2.090000" ry="2.090000" transform="matrix(-1 0 -0 -1 422.21999999999997 127.77000000000007)" fill="rgb(176,150,132)" stroke="none" stroke-width="1"/><rect id="eg5pqvs7girq33" width="11.780000" height="3.270000" rx="1.490000" ry="1.490000" transform="matrix(-1 0 -0 -1 402.58999999999997 99.64000000000004)" fill="rgb(250,238,230)" stroke="none" stroke-width="1"/><rect id="eg5pqvs7girq34" width="3.930000" height="3.270000" rx="1.490000" ry="1.490000" transform="matrix(-1 0 -0 -1 388.85000000000002 99.64000000000004)" fill="rgb(250,238,230)" stroke="none" stroke-width="1"/><rect id="eg5pqvs7girq35" width="3.930000" height="3.270000" rx="1.490000" ry="1.490000" transform="matrix(-1 0 -0 -1 319.48999999999995 94.40000000000003)" fill="rgb(250,238,230)" stroke="none" stroke-width="1"/><rect id="eg5pqvs7girq36" width="11.780000" height="3.270000" rx="1.490000" ry="1.490000" transform="matrix(-1 0 -0 -1 485.02999999999997 100.94000000000005)" fill="rgb(250,238,230)" stroke="none" stroke-width="1"/></g></g><g id="eg5pqvs7girq37_tr" transform="translate(245.460000,131.775000) rotate(-4)"><g id="eg5pqvs7girq37" transform="scale(0.900000,0.900000) translate(-245.464996,-131.775940)"><path id="eg5pqvs7girq38" d="M262.740000,377.310000C256.002166,381.111460,247.840245,381.413339,240.840000,378.120000C234.710467,375.122276,230.845069,368.873086,230.900000,362.050000L230.900000,183.370000L271.250000,183.370000L271.250000,362.050000C271.316781,368.285005,268.079562,374.089935,262.740000,377.310000Z" transform="matrix(1 0 0 1 -5.61000000000000 -116.84000000000000)" fill="rgb(161,213,255)" stroke="none" stroke-width="1"/><path id="eg5pqvs7girq39" d="M260.850000,374.870000C255.232346,378.147269,248.351002,378.409773,242.500000,375.570000C237.322503,372.910623,234.096105,367.550078,234.170000,361.730000L234.170000,208.460000L268,208.460000L268,361.720000C268.077723,367.051456,265.367040,372.036838,260.850000,374.870000Z" transform="matrix(1 0 0 1 -5.61000000000000 -116.84000000000000)" fill="rgb(250,128,127)" stroke="none" stroke-width="1"/><rect id="eg5pqvs7girq40" width="33.810000" height="95.980000" rx="0" ry="0" transform="matrix(1 0 0 1 228.55000000000001 90.53000000000000)" fill="rgb(250,250,164)" stroke="none" stroke-width="1"/><rect id="eg5pqvs7girq41" width="55.630000" height="69.810000" rx="8.750000" ry="8.750000" transform="matrix(1 0 0 1 217.65000000000001 0)" fill="rgb(250,128,127)" stroke="none" stroke-width="1"/><rect id="eg5pqvs7girq42" width="5.450000" height="33.810000" rx="2.490000" ry="2.490000" transform="matrix(1 0 0 1 231.83000000000001 76.34999999999999)" fill="rgb(255,255,255)" stroke="none" stroke-width="1"/><rect id="eg5pqvs7girq43" width="5.450000" height="14.180000" rx="2.490000" ry="2.490000" transform="matrix(1 0 0 1 231.83000000000001 117.80000000000000)" fill="rgb(255,255,255)" stroke="none" stroke-width="1"/><rect id="eg5pqvs7girq44" width="5.450000" height="14.180000" rx="2.490000" ry="2.490000" transform="matrix(1 0 0 1 254.72999999999999 233.41999999999999)" fill="rgb(255,255,255)" stroke="none" stroke-width="1"/></g></g><g id="eg5pqvs7girq45"><polygon id="eg5pqvs7girq46" points="164.010000,32.590000 165.830000,46.440000 176.910000,37.940000 164.010000,32.590000" fill="rgb(255,255,255)" stroke="none" stroke-width="1"/><path id="eg5pqvs7girq47" d="M207.560000,134.820000Q184.560000,135.820000,175.110000,153.920000" transform="matrix(1 0 0 1 -5.61000000000000 -116.84000000000000)" fill="none" stroke="rgb(255,255,255)" stroke-width="5" stroke-linecap="round" stroke-miterlimit="10"/></g><g id="eg5pqvs7girq48"><path id="eg5pqvs7girq49" d="M290.730000,134.820000Q313.730000,135.820000,323.180000,153.920000" transform="matrix(1 0 0 1 -5.61000000000000 -116.84000000000000)" fill="none" stroke="rgb(255,255,255)" stroke-width="5" stroke-linecap="round" stroke-miterlimit="10"/><polygon id="eg5pqvs7girq50" points="310.160000,37.940000 321.240000,46.440000 323.050000,32.590000 310.160000,37.940000" fill="rgb(255,255,255)" stroke="none" stroke-width="1"/></g><g id="eg5pqvs7girq51"><text id="eg5pqvs7girq52" dx="0" dy="0" font-family="MicrosoftTaiLe-Bold, &quot;Microsoft Tai Le&quot;" font-size="25" font-weight="bold" transform="matrix(1 0 0 1 50.19000000000000 235.94999999999999)" fill="rgb(255,255,255)" stroke="none" stroke-width="1"><![CDATA[Equipo X]]></text><text id="eg5pqvs7girq53" dx="0" dy="0" font-family="MicrosoftTaiLe-Bold, &quot;Microsoft Tai Le&quot;" font-size="25" font-weight="bold" transform="matrix(1 0 0 1 335.64999999999998 235.94999999999999)" fill="rgb(255,255,255)" stroke="none" stroke-width="1"><![CDATA[Equipo Y]]></text></g></svg>