<svg id="el_dP8EiFW9Z" data-name="Capa 1" xmlns="http://www.w3.org/2000/svg" viewBox="0 0 62 61"><style>@-webkit-keyframes kf_el_S15_aRQBKz_an_DSn39N5Md{0%{-webkit-transform: translate(44.59493637084961px, 45.92882537841797px) translate(-44.59493637084961px, -45.92882537841797px) translate(-6px, -7px);transform: translate(44.59493637084961px, 45.92882537841797px) translate(-44.59493637084961px, -45.92882537841797px) translate(-6px, -7px);}50%{-webkit-transform: translate(44.59493637084961px, 45.92882537841797px) translate(-44.59493637084961px, -45.92882537841797px) translate(0px, 0px);transform: translate(44.59493637084961px, 45.92882537841797px) translate(-44.59493637084961px, -45.92882537841797px) translate(0px, 0px);}100%{-webkit-transform: translate(44.59493637084961px, 45.92882537841797px) translate(-44.59493637084961px, -45.92882537841797px) translate(-6px, -7px);transform: translate(44.59493637084961px, 45.92882537841797px) translate(-44.59493637084961px, -45.92882537841797px) translate(-6px, -7px);}}@keyframes kf_el_S15_aRQBKz_an_DSn39N5Md{0%{-webkit-transform: translate(44.59493637084961px, 45.92882537841797px) translate(-44.59493637084961px, -45.92882537841797px) translate(-6px, -7px);transform: translate(44.59493637084961px, 45.92882537841797px) translate(-44.59493637084961px, -45.92882537841797px) translate(-6px, -7px);}50%{-webkit-transform: translate(44.59493637084961px, 45.92882537841797px) translate(-44.59493637084961px, -45.92882537841797px) translate(0px, 0px);transform: translate(44.59493637084961px, 45.92882537841797px) translate(-44.59493637084961px, -45.92882537841797px) translate(0px, 0px);}100%{-webkit-transform: translate(44.59493637084961px, 45.92882537841797px) translate(-44.59493637084961px, -45.92882537841797px) translate(-6px, -7px);transform: translate(44.59493637084961px, 45.92882537841797px) translate(-44.59493637084961px, -45.92882537841797px) translate(-6px, -7px);}}@-webkit-keyframes kf_el_S15_aRQBKz_an_8PgUidJET{0%{opacity: 1;}50%{opacity: 0.3;}100%{opacity: 1;}}@keyframes kf_el_S15_aRQBKz_an_8PgUidJET{0%{opacity: 1;}50%{opacity: 0.3;}100%{opacity: 1;}}@-webkit-keyframes kf_el_S15_aRQBKz_an_W2tXPPf61{0%{-webkit-transform: translate(44.59493637084961px, 45.92882537841797px) scale(0.5, 0.5) translate(-44.59493637084961px, -45.92882537841797px);transform: translate(44.59493637084961px, 45.92882537841797px) scale(0.5, 0.5) translate(-44.59493637084961px, -45.92882537841797px);}50%{-webkit-transform: translate(44.59493637084961px, 45.92882537841797px) scale(1, 1) translate(-44.59493637084961px, -45.92882537841797px);transform: translate(44.59493637084961px, 45.92882537841797px) scale(1, 1) translate(-44.59493637084961px, -45.92882537841797px);}100%{-webkit-transform: translate(44.59493637084961px, 45.92882537841797px) scale(0.5, 0.5) translate(-44.59493637084961px, -45.92882537841797px);transform: translate(44.59493637084961px, 45.92882537841797px) scale(0.5, 0.5) translate(-44.59493637084961px, -45.92882537841797px);}}@keyframes kf_el_S15_aRQBKz_an_W2tXPPf61{0%{-webkit-transform: translate(44.59493637084961px, 45.92882537841797px) scale(0.5, 0.5) translate(-44.59493637084961px, -45.92882537841797px);transform: translate(44.59493637084961px, 45.92882537841797px) scale(0.5, 0.5) translate(-44.59493637084961px, -45.92882537841797px);}50%{-webkit-transform: translate(44.59493637084961px, 45.92882537841797px) scale(1, 1) translate(-44.59493637084961px, -45.92882537841797px);transform: translate(44.59493637084961px, 45.92882537841797px) scale(1, 1) translate(-44.59493637084961px, -45.92882537841797px);}100%{-webkit-transform: translate(44.59493637084961px, 45.92882537841797px) scale(0.5, 0.5) translate(-44.59493637084961px, -45.92882537841797px);transform: translate(44.59493637084961px, 45.92882537841797px) scale(0.5, 0.5) translate(-44.59493637084961px, -45.92882537841797px);}}@-webkit-keyframes kf_el_sJj_StYK84_an_zQxKDbo7y{0%{opacity: 1;}50%{opacity: 0.3;}100%{opacity: 1;}}@keyframes kf_el_sJj_StYK84_an_zQxKDbo7y{0%{opacity: 1;}50%{opacity: 0.3;}100%{opacity: 1;}}@-webkit-keyframes kf_el_sJj_StYK84_an_9ymyMT7Oy{0%{-webkit-transform: translate(32.007187247276306px, 32.115010380744934px) scale(0.5, 0.5) translate(-32.007187247276306px, -32.115010380744934px);transform: translate(32.007187247276306px, 32.115010380744934px) scale(0.5, 0.5) translate(-32.007187247276306px, -32.115010380744934px);}50%{-webkit-transform: translate(32.007187247276306px, 32.115010380744934px) scale(1, 1) translate(-32.007187247276306px, -32.115010380744934px);transform: translate(32.007187247276306px, 32.115010380744934px) scale(1, 1) translate(-32.007187247276306px, -32.115010380744934px);}100%{-webkit-transform: translate(32.007187247276306px, 32.115010380744934px) scale(0.5, 0.5) translate(-32.007187247276306px, -32.115010380744934px);transform: translate(32.007187247276306px, 32.115010380744934px) scale(0.5, 0.5) translate(-32.007187247276306px, -32.115010380744934px);}}@keyframes kf_el_sJj_StYK84_an_9ymyMT7Oy{0%{-webkit-transform: translate(32.007187247276306px, 32.115010380744934px) scale(0.5, 0.5) translate(-32.007187247276306px, -32.115010380744934px);transform: translate(32.007187247276306px, 32.115010380744934px) scale(0.5, 0.5) translate(-32.007187247276306px, -32.115010380744934px);}50%{-webkit-transform: translate(32.007187247276306px, 32.115010380744934px) scale(1, 1) translate(-32.007187247276306px, -32.115010380744934px);transform: translate(32.007187247276306px, 32.115010380744934px) scale(1, 1) translate(-32.007187247276306px, -32.115010380744934px);}100%{-webkit-transform: translate(32.007187247276306px, 32.115010380744934px) scale(0.5, 0.5) translate(-32.007187247276306px, -32.115010380744934px);transform: translate(32.007187247276306px, 32.115010380744934px) scale(0.5, 0.5) translate(-32.007187247276306px, -32.115010380744934px);}}#el_dP8EiFW9Z *{-webkit-animation-duration: 1s;animation-duration: 1s;-webkit-animation-iteration-count: infinite;animation-iteration-count: infinite;-webkit-animation-timing-function: cubic-bezier(0, 0, 1, 1);animation-timing-function: cubic-bezier(0, 0, 1, 1);}#el_S15_aRQBKz{fill: blue;-webkit-transform: translate(-1px, -1.45px);transform: translate(-1px, -1.45px);-webkit-animation-fill-mode: backwards;animation-fill-mode: backwards;opacity: 1;-webkit-animation-name: kf_el_S15_aRQBKz_an_8PgUidJET;animation-name: kf_el_S15_aRQBKz_an_8PgUidJET;-webkit-animation-timing-function: cubic-bezier(0.42, 0, 0.58, 1);animation-timing-function: cubic-bezier(0.42, 0, 0.58, 1);}#el_sJj_StYK84{fill: blue;-webkit-transform: translate(-1px, -1.45px);transform: translate(-1px, -1.45px);-webkit-animation-fill-mode: backwards;animation-fill-mode: backwards;opacity: 1;-webkit-animation-name: kf_el_sJj_StYK84_an_zQxKDbo7y;animation-name: kf_el_sJj_StYK84_an_zQxKDbo7y;-webkit-animation-timing-function: cubic-bezier(0.42, 0, 0.58, 1);animation-timing-function: cubic-bezier(0.42, 0, 0.58, 1);}#el_sJj_StYK84_an_FP5_tkU_G{-webkit-transform: translate(32.007187247276306px, 32.115010380744934px) rotate(0deg) translate(-32.007187247276306px, -32.115010380744934px);transform: translate(32.007187247276306px, 32.115010380744934px) rotate(0deg) translate(-32.007187247276306px, -32.115010380744934px);}#el_sJj_StYK84_an_SrWVU_jkN1{-webkit-transform: translate(32.007187247276306px, 32.115010380744934px) scale(1, 1) translate(-32.007187247276306px, -32.115010380744934px);transform: translate(32.007187247276306px, 32.115010380744934px) scale(1, 1) translate(-32.007187247276306px, -32.115010380744934px);}#el_S15_aRQBKz_an_qlGjSvPrK{-webkit-transform: translate(44.59493637084961px, 45.92882537841797px) rotate(0deg) translate(-44.59493637084961px, -45.92882537841797px);transform: translate(44.59493637084961px, 45.92882537841797px) rotate(0deg) translate(-44.59493637084961px, -45.92882537841797px);}#el_S15_aRQBKz_an_EnIYx5m6B{-webkit-transform: translate(44.59493637084961px, 45.92882537841797px) scale(1, 1) translate(-44.59493637084961px, -45.92882537841797px);transform: translate(44.59493637084961px, 45.92882537841797px) scale(1, 1) translate(-44.59493637084961px, -45.92882537841797px);}#el_S15_aRQBKz_an_DFxUIgMZp{-webkit-transform: translate(44.59493637084961px, 45.92882537841797px) translate(-44.59493637084961px, -45.92882537841797px) translate(0px, 0px);transform: translate(44.59493637084961px, 45.92882537841797px) translate(-44.59493637084961px, -45.92882537841797px) translate(0px, 0px);}#el_sJj_StYK84_an_9ymyMT7Oy{-webkit-animation-fill-mode: backwards;animation-fill-mode: backwards;-webkit-transform: translate(32.007187247276306px, 32.115010380744934px) scale(0.5, 0.5) translate(-32.007187247276306px, -32.115010380744934px);transform: translate(32.007187247276306px, 32.115010380744934px) scale(0.5, 0.5) translate(-32.007187247276306px, -32.115010380744934px);-webkit-animation-name: kf_el_sJj_StYK84_an_9ymyMT7Oy;animation-name: kf_el_sJj_StYK84_an_9ymyMT7Oy;-webkit-animation-timing-function: cubic-bezier(0.42, 0, 0.58, 1);animation-timing-function: cubic-bezier(0.42, 0, 0.58, 1);}#el_S15_aRQBKz_an_W2tXPPf61{-webkit-animation-fill-mode: backwards;animation-fill-mode: backwards;-webkit-transform: translate(44.59493637084961px, 45.92882537841797px) scale(0.5, 0.5) translate(-44.59493637084961px, -45.92882537841797px);transform: translate(44.59493637084961px, 45.92882537841797px) scale(0.5, 0.5) translate(-44.59493637084961px, -45.92882537841797px);-webkit-animation-name: kf_el_S15_aRQBKz_an_W2tXPPf61;animation-name: kf_el_S15_aRQBKz_an_W2tXPPf61;-webkit-animation-timing-function: cubic-bezier(0.42, 0, 0.58, 1);animation-timing-function: cubic-bezier(0.42, 0, 0.58, 1);}#el_S15_aRQBKz_an_DSn39N5Md{-webkit-animation-fill-mode: backwards;animation-fill-mode: backwards;-webkit-transform: translate(44.59493637084961px, 45.92882537841797px) translate(-44.59493637084961px, -45.92882537841797px) translate(-6px, -7px);transform: translate(44.59493637084961px, 45.92882537841797px) translate(-44.59493637084961px, -45.92882537841797px) translate(-6px, -7px);-webkit-animation-name: kf_el_S15_aRQBKz_an_DSn39N5Md;animation-name: kf_el_S15_aRQBKz_an_DSn39N5Md;-webkit-animation-timing-function: cubic-bezier(0.42, 0, 0.58, 1);animation-timing-function: cubic-bezier(0.42, 0, 0.58, 1);}</style><defs/><title>logo2</title><g id="el_S15_aRQBKz_an_DSn39N5Md" data-animator-group="true" data-animator-type="0"><g id="el_S15_aRQBKz_an_W2tXPPf61" data-animator-group="true" data-animator-type="2"><path d="M50.73,36.3a2.52,2.52,0,0,0-1.93.82,6.48,6.48,0,0,0-.56.71l-.55.8L44.61,43l-3-4.4a11.68,11.68,0,0,0-1.34-1.73,2.37,2.37,0,0,0-1.72-.61,2.63,2.63,0,0,0-1.74.6A2,2,0,0,0,36,38.49a2.58,2.58,0,0,0,.34,1.19,14.72,14.72,0,0,0,.93,1.47l4.6,6.35v5.25a2.83,2.83,0,0,0,.76,2.12,2.66,2.66,0,0,0,1.91.73,2.69,2.69,0,0,0,1.91-.73,2.81,2.81,0,0,0,.77-2.12V47.5l4.71-6.44a12.58,12.58,0,0,0,.92-1.36,2.65,2.65,0,0,0,.34-1.26,2,2,0,0,0-.75-1.53A2.51,2.51,0,0,0,50.73,36.3Z" id="el_S15_aRQBKz"/></g></g><g id="el_sJj_StYK84_an_9ymyMT7Oy" data-animator-group="true" data-animator-type="2"><path d="M44.63,26a18.29,18.29,0,0,0-6.72,1.26.93.93,0,0,1-1.21-1.18A18.39,18.39,0,1,0,19.37,38.23,18.29,18.29,0,0,0,26.09,37a.93.93,0,0,1,1.21,1.19A18.39,18.39,0,1,0,44.63,26ZM27.25,28.11a2.33,2.33,0,0,1-.95.8,2.91,2.91,0,0,1-1.26.28,2.68,2.68,0,0,1-1.3-.3,2.64,2.64,0,0,1-.87-.7c-.17-.21-.46-.6-.9-1.18l-2.8-3.84-3,4-.61.82a4,4,0,0,1-.54.56,2.69,2.69,0,0,1-.84.49,3,3,0,0,1-1.07.18,2.58,2.58,0,0,1-1.68-.56,2.1,2.1,0,0,1-.76-1.71,4.34,4.34,0,0,1,1.13-2.57h0l4-5.05L12.5,14.87a10.37,10.37,0,0,1-.85-1.34,3.06,3.06,0,0,1-.34-1.34,1.85,1.85,0,0,1,.8-1.49,2.66,2.66,0,0,1,1.69-.55,2.56,2.56,0,0,1,1.81.63A11.55,11.55,0,0,1,17,12.46l2.29,3.23,2.46-3.25.65-.88a5.71,5.71,0,0,1,.61-.71,2.57,2.57,0,0,1,.82-.53,2.93,2.93,0,0,1,1-.17,2.62,2.62,0,0,1,1.7.56,1.94,1.94,0,0,1,.76,1.52,4.56,4.56,0,0,1-1.18,2.58l-3.46,4.51,3.76,5a10.43,10.43,0,0,1,.87,1.31,2.81,2.81,0,0,1,.34,1.27A2,2,0,0,1,27.25,28.11ZM44.47,59.25A14.61,14.61,0,1,1,59.08,44.64,14.61,14.61,0,0,1,44.47,59.25Z" id="el_sJj_StYK84"/></g></svg>